PathFileType	4	(X/Y/Z)	C:\Users\Willi\Documents\GitHub\processC3D_GUI\exampleC3Dfiles\fws_end01_L3\marker_experimental.trc
DataRate	CameraRate	NumFrames	NumMarkers	Units	OrigDataRate	OrigDataStartFrame	OrigNumFrames
2.000000e+02	2.000000e+02	12	51	m	2.000000e+02	41	320
Frame#	Time	CLAV			GLAB			LANK			LASI			LELB			LFIN			LFMH			LHEE			LKNE			LMAS			LPEL			LPSI			LSHO			LTHAD			LTHAP			LTHI			LTIAD			LTIAP			LTIB			LTOE			LVMH			LWRA			LWRB			RANK			RASI			RBAK			RELB			RFIN			RFMH			RHEE			RKNE			RMAS			RPEL			RPSI			RSHO			RTHAD			RTHAP			RTHI			RTIAD			RTIAP			RTIB			RTOE			RVMH			RWRA			RWRB			SACR			T10			T2			not_labelled_48			not_labelled_49			not_labelled_50		
		X1	Y1	Z1	X2	Y2	Z2	X3	Y3	Z3	X4	Y4	Z4	X5	Y5	Z5	X6	Y6	Z6	X7	Y7	Z7	X8	Y8	Z8	X9	Y9	Z9	X10	Y10	Z10	X11	Y11	Z11	X12	Y12	Z12	X13	Y13	Z13	X14	Y14	Z14	X15	Y15	Z15	X16	Y16	Z16	X17	Y17	Z17	X18	Y18	Z18	X19	Y19	Z19	X20	Y20	Z20	X21	Y21	Z21	X22	Y22	Z22	X23	Y23	Z23	X24	Y24	Z24	X25	Y25	Z25	X26	Y26	Z26	X27	Y27	Z27	X28	Y28	Z28	X29	Y29	Z29	X30	Y30	Z30	X31	Y31	Z31	X32	Y32	Z32	X33	Y33	Z33	X34	Y34	Z34	X35	Y35	Z35	X36	Y36	Z36	X37	Y37	Z37	X38	Y38	Z38	X39	Y39	Z39	X40	Y40	Z40	X41	Y41	Z41	X42	Y42	Z42	X43	Y43	Z43	X44	Y44	Z44	X45	Y45	Z45	X46	Y46	Z46	X47	Y47	Z47	X48	Y48	Z48	X49	Y49	Z49	X50	Y50	Z50	X51	Y51	Z51
41	3.13000	0.515	1.365	0.358	0.645	1.574	0.373	0.732	0.112	0.274	0.482	0.975	0.251	0.397	1.071	0.136	0.424	0.748	0.112	0.928	0.169	0.327	0.689	0.069	0.323	0.587	0.515	0.238	0.513	1.542	0.294	0.415	0.995	0.225	0.328	0.995	0.311	0.468	1.390	0.197	0.546	0.649	0.208	0.508	0.702	0.203	0.495	0.640	0.220	0.703	0.258	0.254	0.663	0.309	0.242	0.656	0.243	0.250	0.889	0.163	0.300	0.920	0.163	0.271	0.441	0.816	0.135	0.388	0.824	0.105	0.111	0.126	0.461	0.475	0.972	0.487	0.333	1.344	0.461	0.431	1.059	0.590	0.600	0.801	0.611	0.291	0.060	0.409	0.036	0.114	0.417	0.325	0.497	0.493	0.507	1.533	0.439	0.422	1.028	0.506	0.321	1.006	0.419	0.475	1.389	0.524	0.386	0.637	0.513	0.400	0.701	0.524	0.344	0.666	0.524	0.210	0.248	0.476	0.233	0.310	0.485	0.174	0.281	0.489	0.250	0.075	0.427	0.270	0.053	0.464	0.590	0.845	0.575	0.533	0.820	0.619	0.323	1.031	0.364	0.317	1.217	0.368	0.385	1.433	0.369	-0.000	0.011	-0.000	0.720	0.012	-0.006	-0.000	0.011	0.762
42	3.13500	0.515	1.364	0.357	0.645	1.574	0.373	0.730	0.111	0.276	0.483	0.975	0.250	0.397	1.071	0.135	0.423	0.747	0.112	0.926	0.165	0.328	0.686	0.069	0.324	0.588	0.515	0.238	0.513	1.541	0.293	0.416	0.995	0.224	0.328	0.994	0.311	0.468	1.389	0.196	0.547	0.649	0.208	0.509	0.702	0.204	0.497	0.640	0.221	0.702	0.257	0.256	0.663	0.308	0.243	0.654	0.243	0.251	0.887	0.159	0.301	0.918	0.159	0.272	0.440	0.815	0.135	0.387	0.823	0.105	0.106	0.128	0.461	0.476	0.972	0.486	0.333	1.343	0.460	0.431	1.059	0.589	0.600	0.800	0.610	0.285	0.060	0.409	0.031	0.117	0.417	0.324	0.497	0.492	0.507	1.533	0.438	0.422	1.028	0.506	0.322	1.005	0.418	0.475	1.389	0.524	0.386	0.637	0.512	0.399	0.701	0.524	0.344	0.665	0.524	0.207	0.248	0.476	0.230	0.310	0.485	0.170	0.283	0.489	0.245	0.075	0.427	0.264	0.053	0.464	0.590	0.844	0.575	0.533	0.819	0.619	0.324	1.030	0.364	0.318	1.216	0.368	0.385	1.432	0.368	-0.000	0.011	-0.000	0.720	0.012	-0.006	-0.001	0.011	0.762
43	3.14000	0.515	1.364	0.356	0.645	1.573	0.372	0.727	0.110	0.277	0.484	0.975	0.250	0.397	1.070	0.135	0.423	0.746	0.111	0.924	0.160	0.329	0.683	0.069	0.325	0.589	0.515	0.239	0.513	1.541	0.293	0.417	0.994	0.224	0.329	0.993	0.311	0.468	1.389	0.196	0.548	0.649	0.209	0.510	0.702	0.204	0.498	0.640	0.222	0.701	0.256	0.257	0.662	0.307	0.244	0.653	0.242	0.252	0.885	0.156	0.302	0.916	0.155	0.273	0.440	0.814	0.134	0.386	0.823	0.105	0.101	0.129	0.462	0.477	0.971	0.486	0.333	1.342	0.459	0.432	1.059	0.589	0.600	0.799	0.610	0.279	0.060	0.409	0.027	0.119	0.417	0.323	0.496	0.492	0.507	1.532	0.437	0.423	1.027	0.506	0.323	1.004	0.418	0.475	1.388	0.523	0.385	0.636	0.512	0.399	0.700	0.524	0.344	0.665	0.523	0.203	0.249	0.476	0.227	0.311	0.485	0.167	0.284	0.489	0.239	0.075	0.427	0.258	0.053	0.464	0.590	0.843	0.574	0.533	0.819	0.619	0.325	1.029	0.363	0.318	1.216	0.367	0.385	1.432	0.367	-0.000	0.011	-0.000	0.720	0.012	-0.006	-0.001	0.011	0.762
44	3.14500	0.516	1.363	0.356	0.645	1.572	0.371	0.724	0.109	0.278	0.485	0.974	0.250	0.397	1.069	0.134	0.422	0.746	0.111	0.922	0.155	0.330	0.679	0.069	0.326	0.591	0.515	0.239	0.513	1.541	0.292	0.417	0.994	0.224	0.329	0.993	0.310	0.468	1.388	0.195	0.550	0.649	0.209	0.512	0.702	0.205	0.500	0.640	0.223	0.700	0.254	0.258	0.662	0.306	0.245	0.652	0.241	0.253	0.882	0.152	0.303	0.914	0.151	0.274	0.439	0.814	0.134	0.385	0.822	0.104	0.096	0.131	0.462	0.477	0.970	0.486	0.333	1.342	0.458	0.432	1.058	0.588	0.600	0.799	0.609	0.272	0.061	0.409	0.022	0.122	0.417	0.322	0.496	0.492	0.507	1.532	0.437	0.424	1.026	0.505	0.323	1.004	0.418	0.475	1.388	0.522	0.385	0.636	0.512	0.399	0.700	0.523	0.344	0.664	0.523	0.200	0.250	0.476	0.225	0.311	0.485	0.165	0.285	0.489	0.234	0.074	0.427	0.251	0.053	0.464	0.590	0.843	0.573	0.533	0.818	0.619	0.325	1.029	0.363	0.319	1.215	0.366	0.385	1.431	0.366	-0.000	0.011	-0.000	0.720	0.012	-0.006	-0.001	0.011	0.762
45	3.15000	0.516	1.363	0.355	0.645	1.572	0.371	0.721	0.108	0.279	0.486	0.974	0.249	0.397	1.068	0.134	0.421	0.745	0.110	0.920	0.150	0.331	0.675	0.070	0.327	0.592	0.515	0.240	0.513	1.540	0.291	0.418	0.993	0.223	0.330	0.992	0.310	0.468	1.388	0.194	0.551	0.649	0.210	0.513	0.702	0.205	0.501	0.640	0.224	0.699	0.253	0.259	0.661	0.305	0.246	0.651	0.240	0.254	0.880	0.148	0.304	0.911	0.146	0.275	0.439	0.813	0.133	0.385	0.821	0.104	0.092	0.133	0.462	0.478	0.970	0.485	0.334	1.341	0.457	0.432	1.058	0.588	0.600	0.798	0.609	0.266	0.061	0.409	0.018	0.125	0.417	0.322	0.495	0.492	0.507	1.532	0.436	0.424	1.026	0.505	0.324	1.003	0.417	0.475	1.388	0.521	0.385	0.635	0.512	0.399	0.699	0.523	0.344	0.664	0.523	0.197	0.251	0.476	0.222	0.312	0.485	0.162	0.287	0.489	0.229	0.074	0.428	0.245	0.052	0.464	0.590	0.842	0.573	0.533	0.818	0.619	0.326	1.028	0.362	0.319	1.215	0.366	0.386	1.431	0.366	-0.000	0.011	-0.000	0.720	0.012	-0.006	-0.001	0.011	0.762
46	3.15500	0.516	1.363	0.354	0.646	1.572	0.370	0.717	0.108	0.280	0.487	0.974	0.249	0.397	1.068	0.133	0.421	0.745	0.110	0.917	0.145	0.332	0.671	0.070	0.328	0.594	0.515	0.241	0.514	1.540	0.290	0.420	0.993	0.223	0.331	0.992	0.310	0.468	1.387	0.193	0.553	0.649	0.210	0.514	0.702	0.205	0.503	0.640	0.225	0.698	0.252	0.261	0.661	0.304	0.247	0.649	0.240	0.255	0.877	0.144	0.305	0.909	0.141	0.276	0.438	0.812	0.132	0.384	0.821	0.104	0.088	0.136	0.462	0.479	0.969	0.485	0.334	1.341	0.456	0.432	1.058	0.587	0.599	0.798	0.608	0.260	0.061	0.409	0.013	0.129	0.417	0.322	0.495	0.492	0.507	1.532	0.435	0.425	1.025	0.505	0.325	1.003	0.417	0.475	1.387	0.520	0.386	0.635	0.511	0.400	0.699	0.523	0.344	0.663	0.522	0.194	0.252	0.476	0.220	0.313	0.485	0.159	0.288	0.489	0.224	0.073	0.428	0.238	0.052	0.464	0.589	0.842	0.573	0.533	0.818	0.619	0.327	1.028	0.362	0.320	1.214	0.365	0.386	1.430	0.365	-0.000	0.011	-0.000	0.720	0.012	-0.006	-0.001	0.011	0.762
47	3.16000	0.516	1.363	0.353	0.646	1.571	0.369	0.714	0.107	0.281	0.488	0.974	0.249	0.397	1.067	0.133	0.421	0.744	0.109	0.915	0.139	0.333	0.667	0.071	0.329	0.595	0.516	0.241	0.514	1.540	0.289	0.421	0.993	0.223	0.331	0.992	0.310	0.468	1.387	0.192	0.554	0.649	0.211	0.516	0.702	0.206	0.504	0.640	0.226	0.697	0.251	0.262	0.660	0.304	0.248	0.648	0.240	0.256	0.875	0.139	0.306	0.906	0.136	0.277	0.438	0.812	0.132	0.384	0.820	0.103	0.084	0.138	0.462	0.479	0.968	0.485	0.334	1.340	0.456	0.433	1.058	0.587	0.599	0.797	0.608	0.254	0.061	0.409	0.010	0.132	0.417	0.322	0.495	0.492	0.507	1.531	0.434	0.426	1.025	0.504	0.326	1.002	0.416	0.475	1.387	0.520	0.386	0.634	0.511	0.400	0.698	0.522	0.344	0.663	0.522	0.192	0.254	0.477	0.218	0.314	0.486	0.157	0.290	0.488	0.219	0.072	0.428	0.232	0.052	0.464	0.589	0.841	0.572	0.533	0.818	0.618	0.328	1.027	0.362	0.320	1.214	0.365	0.386	1.430	0.364	-0.000	0.011	-0.000	0.720	0.012	-0.006	-0.001	0.011	0.762
48	3.16500	0.517	1.362	0.352	0.646	1.571	0.369	0.711	0.106	0.282	0.489	0.974	0.248	0.397	1.067	0.132	0.420	0.744	0.109	0.912	0.133	0.334	0.663	0.072	0.330	0.597	0.516	0.242	0.514	1.540	0.289	0.422	0.993	0.222	0.332	0.991	0.309	0.468	1.386	0.191	0.555	0.649	0.212	0.517	0.702	0.206	0.506	0.641	0.227	0.696	0.250	0.263	0.660	0.303	0.249	0.647	0.239	0.257	0.872	0.135	0.307	0.904	0.131	0.277	0.438	0.812	0.131	0.384	0.820	0.103	0.080	0.141	0.462	0.480	0.968	0.484	0.334	1.340	0.455	0.433	1.058	0.586	0.598	0.797	0.608	0.247	0.061	0.409	0.006	0.136	0.417	0.323	0.495	0.492	0.507	1.531	0.433	0.427	1.025	0.504	0.326	1.002	0.416	0.475	1.387	0.519	0.387	0.634	0.511	0.400	0.698	0.522	0.345	0.662	0.521	0.189	0.255	0.477	0.217	0.315	0.486	0.155	0.292	0.488	0.214	0.072	0.428	0.225	0.052	0.464	0.589	0.841	0.572	0.533	0.818	0.618	0.329	1.027	0.361	0.321	1.213	0.364	0.386	1.430	0.363	-0.000	0.011	-0.000	0.720	0.012	-0.006	-0.001	0.011	0.762
49	3.17000	0.517	1.362	0.351	0.646	1.571	0.368	0.707	0.106	0.282	0.490	0.974	0.248	0.397	1.067	0.132	0.420	0.744	0.108	0.910	0.127	0.335	0.659	0.073	0.330	0.598	0.516	0.243	0.514	1.540	0.288	0.423	0.993	0.222	0.333	0.991	0.309	0.468	1.386	0.190	0.557	0.649	0.212	0.518	0.702	0.207	0.507	0.641	0.227	0.695	0.249	0.264	0.660	0.303	0.250	0.646	0.239	0.257	0.869	0.131	0.309	0.901	0.126	0.278	0.438	0.811	0.131	0.384	0.820	0.103	0.076	0.143	0.462	0.481	0.968	0.484	0.334	1.340	0.454	0.433	1.058	0.585	0.598	0.797	0.607	0.241	0.061	0.409	0.003	0.140	0.417	0.323	0.494	0.492	0.507	1.531	0.432	0.428	1.024	0.504	0.327	1.002	0.416	0.475	1.387	0.518	0.387	0.633	0.511	0.401	0.697	0.522	0.345	0.662	0.521	0.187	0.256	0.477	0.215	0.316	0.486	0.154	0.294	0.488	0.209	0.071	0.428	0.219	0.051	0.464	0.588	0.840	0.571	0.532	0.818	0.618	0.330	1.026	0.361	0.321	1.213	0.363	0.386	1.430	0.362	-0.000	0.011	-0.000	0.720	0.012	-0.006	-0.001	0.011	0.762
50	3.17500	0.517	1.362	0.350	0.646	1.571	0.367	0.704	0.105	0.283	0.491	0.974	0.247	0.397	1.067	0.131	0.420	0.743	0.108	0.907	0.122	0.336	0.654	0.073	0.330	0.599	0.517	0.243	0.515	1.540	0.287	0.424	0.993	0.221	0.333	0.991	0.309	0.468	1.386	0.189	0.558	0.650	0.213	0.519	0.703	0.207	0.508	0.641	0.228	0.694	0.249	0.265	0.659	0.303	0.250	0.645	0.239	0.258	0.866	0.126	0.310	0.898	0.121	0.279	0.438	0.811	0.130	0.384	0.819	0.102	0.073	0.146	0.462	0.482	0.967	0.484	0.335	1.340	0.453	0.433	1.058	0.585	0.597	0.796	0.607	0.235	0.061	0.409	-0.000	0.145	0.416	0.324	0.494	0.492	0.507	1.532	0.432	0.429	1.024	0.503	0.328	1.001	0.415	0.475	1.387	0.517	0.388	0.633	0.511	0.402	0.697	0.522	0.346	0.661	0.521	0.185	0.258	0.477	0.214	0.317	0.486	0.152	0.296	0.488	0.204	0.070	0.428	0.213	0.051	0.464	0.588	0.840	0.571	0.532	0.818	0.618	0.331	1.026	0.360	0.322	1.213	0.362	0.386	1.430	0.361	-0.000	0.011	-0.000	0.720	0.012	-0.006	-0.001	0.011	0.762
51	3.18000	0.517	1.363	0.349	0.646	1.571	0.367	0.700	0.105	0.283	0.492	0.974	0.247	0.397	1.066	0.131	0.420	0.743	0.107	0.904	0.116	0.337	0.650	0.074	0.331	0.601	0.517	0.244	0.515	1.540	0.286	0.426	0.993	0.221	0.334	0.991	0.308	0.469	1.386	0.188	0.559	0.650	0.213	0.521	0.703	0.207	0.510	0.642	0.228	0.693	0.248	0.266	0.659	0.303	0.251	0.644	0.239	0.258	0.863	0.122	0.311	0.895	0.116	0.280	0.438	0.811	0.130	0.384	0.819	0.102	0.070	0.149	0.462	0.483	0.967	0.483	0.335	1.340	0.452	0.433	1.058	0.584	0.597	0.796	0.607	0.229	0.061	0.409	-0.003	0.149	0.416	0.326	0.494	0.492	0.507	1.532	0.431	0.430	1.024	0.503	0.329	1.001	0.415	0.475	1.388	0.516	0.389	0.633	0.511	0.403	0.697	0.521	0.347	0.661	0.520	0.184	0.259	0.478	0.213	0.318	0.486	0.151	0.298	0.488	0.199	0.070	0.428	0.206	0.051	0.463	0.587	0.840	0.571	0.531	0.818	0.618	0.332	1.026	0.360	0.322	1.212	0.362	0.387	1.430	0.360	-0.000	0.011	-0.000	0.720	0.012	-0.006	-0.001	0.011	0.762
52	3.18500	0.518	1.363	0.349	0.646	1.572	0.366	0.697	0.104	0.283	0.493	0.975	0.247	0.397	1.066	0.130	0.420	0.743	0.107	0.900	0.111	0.338	0.646	0.075	0.330	0.602	0.517	0.244	0.515	1.540	0.285	0.427	0.993	0.221	0.335	0.991	0.308	0.469	1.386	0.187	0.561	0.650	0.214	0.522	0.703	0.208	0.511	0.642	0.229	0.691	0.247	0.267	0.658	0.302	0.251	0.642	0.239	0.258	0.859	0.118	0.311	0.892	0.112	0.281	0.438	0.811	0.129	0.384	0.819	0.102	0.067	0.152	0.462	0.483	0.967	0.483	0.335	1.340	0.451	0.433	1.058	0.583	0.596	0.796	0.607	0.223	0.061	0.409	-0.005	0.154	0.416	0.327	0.493	0.493	0.507	1.532	0.430	0.431	1.024	0.503	0.330	1.001	0.414	0.476	1.388	0.515	0.390	0.632	0.511	0.403	0.697	0.521	0.348	0.661	0.520	0.182	0.261	0.478	0.213	0.319	0.487	0.150	0.300	0.488	0.194	0.069	0.428	0.200	0.051	0.463	0.586	0.840	0.570	0.531	0.818	0.618	0.334	1.026	0.360	0.323	1.212	0.361	0.387	1.430	0.359	0.000	0.011	-0.000	0.719	0.012	-0.006	-0.001	0.011	0.762
